<?xml version="1.0" encoding="UTF-8" standalone="no"?>
<!-- Generator: Adobe Illustrator 16.0.0, SVG Export Plug-In . SVG Version: 6.00 Build 0)  -->

<svg
   xmlns:dc="http://purl.org/dc/elements/1.1/"
   xmlns:cc="http://creativecommons.org/ns#"
   xmlns:rdf="http://www.w3.org/1999/02/22-rdf-syntax-ns#"
   xmlns:svg="http://www.w3.org/2000/svg"
   xmlns="http://www.w3.org/2000/svg"
   xmlns:sodipodi="http://sodipodi.sourceforge.net/DTD/sodipodi-0.dtd"
   xmlns:inkscape="http://www.inkscape.org/namespaces/inkscape"
   version="1.1"
   id="Layer_1"
   x="0px"
   y="0px"
   width="280"
   height="75"
   viewBox="0 0 279.99998 75"
   enable-background="new 0 0 595.28 841.89"
   xml:space="preserve"
   sodipodi:docname="logo-final-text.svg"
   inkscape:version="0.92.1 r15371"><metadata
     id="metadata4612"><rdf:RDF><cc:Work
         rdf:about=""><dc:format>image/svg+xml</dc:format><dc:type
           rdf:resource="http://purl.org/dc/dcmitype/StillImage" /><dc:title></dc:title></cc:Work></rdf:RDF></metadata><defs
     id="defs4610" /><sodipodi:namedview
     pagecolor="#ffffff"
     bordercolor="#666666"
     borderopacity="1"
     objecttolerance="10"
     gridtolerance="10"
     guidetolerance="10"
     inkscape:pageopacity="0"
     inkscape:pageshadow="2"
     inkscape:window-width="3840"
     inkscape:window-height="2019"
     id="namedview4608"
     showgrid="false"
     inkscape:zoom="5.7886183"
     inkscape:cx="161.1173"
     inkscape:cy="110.60842"
     inkscape:window-x="-14"
     inkscape:window-y="-14"
     inkscape:window-maximized="1"
     inkscape:current-layer="Layer_1" /><g
     id="g4503"
     transform="translate(-156.57412,-376.9065)"><path
       style="fill:#2e6480"
       inkscape:connector-curvature="0"
       id="path4485"
       d="m 185.926,420.22 v -13.352 h -16.229 v 13.352 h -6.226 v -33.024 h 6.226 v 13.917 h 16.229 v -13.917 h 6.181 v 33.024 z" /><path
       style="fill:#2e6480"
       inkscape:connector-curvature="0"
       id="path4487"
       d="m 220.642,408.566 c 0,6.7 -4.576,12.125 -12.125,12.125 -7.549,0 -12.078,-5.425 -12.078,-12.125 0,-6.651 4.623,-12.123 12.03,-12.123 7.406,0 12.173,5.472 12.173,12.123 z m -18.447,0 c 0,3.539 2.123,6.841 6.322,6.841 4.199,0 6.32,-3.302 6.32,-6.841 0,-3.49 -2.451,-6.887 -6.32,-6.887 -4.151,0 -6.322,3.397 -6.322,6.887 z" /><path
       style="fill:#2e6480"
       inkscape:connector-curvature="0"
       id="path4489"
       d="m 240.075,420.172 v -12.455 c 0,-3.066 -1.604,-5.85 -4.764,-5.85 -3.114,0 -4.954,2.783 -4.954,5.85 v 12.455 h -5.756 v -23.306 h 5.331 l 0.425,2.833 c 1.227,-2.36 3.914,-3.21 6.131,-3.21 2.785,0 5.57,1.132 6.889,4.342 2.077,-3.303 4.767,-4.247 7.786,-4.247 6.604,0 9.86,4.056 9.86,11.04 v 12.548 h -5.756 v -12.548 c 0,-3.066 -1.275,-5.661 -4.389,-5.661 -3.112,0 -5.046,2.688 -5.046,5.754 v 12.455 z" /><path
       style="fill:#2e6480"
       inkscape:connector-curvature="0"
       id="path4491"
       d="m 271.769,410.595 c 0.378,2.877 2.877,4.955 6.937,4.955 2.122,0 4.906,-0.803 6.226,-2.171 l 3.68,3.633 c -2.452,2.546 -6.464,3.774 -10,3.774 -8.021,0 -12.785,-4.954 -12.785,-12.407 0,-7.078 4.812,-12.173 12.359,-12.173 7.783,0 12.646,4.812 11.748,14.389 z m 12.642,-4.765 c -0.375,-3.019 -2.734,-4.529 -6.039,-4.529 -3.111,0 -5.657,1.51 -6.508,4.529 z" /><path
       style="fill:#82864f"
       inkscape:connector-curvature="0"
       id="path4493"
       d="m 315.166,395.122 c -1.132,-1.887 -4.246,-3.681 -7.831,-3.681 -4.624,0 -6.841,1.935 -6.841,4.388 0,2.878 3.396,3.679 7.357,4.151 6.889,0.851 13.306,2.643 13.306,10.521 0,7.359 -6.512,10.52 -13.869,10.52 -6.746,0 -11.938,-2.074 -14.39,-8.113 l 5.188,-2.689 c 1.462,3.631 5.284,5.236 9.296,5.236 3.914,0 7.593,-1.368 7.593,-4.954 0,-3.113 -3.254,-4.387 -7.641,-4.859 -6.745,-0.802 -12.975,-2.594 -12.975,-10.001 0,-6.793 6.698,-9.577 12.785,-9.624 5.141,0 10.473,1.462 12.974,6.557 z" /><path
       style="fill:#82864f"
       inkscape:connector-curvature="0"
       id="path4495"
       d="m 331.954,410.595 c 0.377,2.877 2.877,4.955 6.936,4.955 2.122,0 4.907,-0.803 6.227,-2.171 l 3.679,3.633 c -2.452,2.546 -6.465,3.774 -10.001,3.774 -8.02,0 -12.784,-4.954 -12.784,-12.407 0,-7.078 4.812,-12.173 12.361,-12.173 7.783,0 12.645,4.812 11.745,14.389 z m 12.642,-4.765 c -0.374,-3.019 -2.734,-4.529 -6.039,-4.529 -3.11,0 -5.658,1.51 -6.508,4.529 z" /><path
       style="fill:#82864f"
       inkscape:connector-curvature="0"
       id="path4497"
       d="m 371.674,420.172 v -12.17 c 0,-3.54 -1.935,-6.229 -5.616,-6.229 -3.536,0 -5.943,2.974 -5.943,6.512 v 11.888 h -5.709 v -23.306 h 5.145 l 0.378,3.162 c 2.355,-2.312 4.715,-3.492 7.64,-3.492 5.474,0 9.86,4.104 9.86,11.418 v 12.218 h -5.755 z" /><path
       style="fill:#82864f"
       inkscape:connector-curvature="0"
       id="path4499"
       d="m 397.567,403.095 c -1.651,-1.557 -3.538,-2.077 -5.756,-2.077 -2.737,0 -4.246,0.85 -4.246,2.312 0,1.51 1.369,2.36 4.341,2.548 4.387,0.283 9.953,1.273 9.953,7.454 0,4.105 -3.351,7.643 -10.001,7.643 -3.679,0 -7.36,-0.613 -10.758,-4.151 l 2.833,-4.105 c 1.648,1.841 5.424,3.209 8.02,3.255 2.171,0.048 4.196,-1.085 4.196,-2.783 0,-1.605 -1.319,-2.265 -4.62,-2.454 -4.391,-0.33 -9.626,-1.935 -9.626,-7.218 0,-5.377 5.57,-7.265 9.813,-7.265 3.634,0 6.368,0.708 9.058,3.067 z" /><path
       style="fill:#82864f"
       inkscape:connector-curvature="0"
       id="path4501"
       d="m 410.441,410.595 c 0.378,2.877 2.877,4.955 6.937,4.955 2.121,0 4.906,-0.803 6.226,-2.171 l 3.678,3.633 c -2.451,2.546 -6.459,3.774 -9.999,3.774 -8.021,0 -12.785,-4.954 -12.785,-12.407 0,-7.078 4.812,-12.173 12.361,-12.173 7.782,0 12.641,4.812 11.747,14.389 z m 12.645,-4.765 c -0.379,-3.019 -2.735,-4.529 -6.039,-4.529 -3.113,0 -5.662,1.51 -6.511,4.529 z" /></g><g
     id="g4603"
     transform="translate(-156.57412,-376.9065)"><path
       style="fill:#2e6480"
       inkscape:connector-curvature="0"
       id="path4543"
       d="m 172.458,427.514 v 12.492 h -0.857 v -1.941 c -0.732,1.339 -2.178,2.088 -3.676,2.088 -2.463,0 -4.408,-1.625 -4.408,-4.551 0,-2.908 1.964,-4.551 4.425,-4.551 1.518,0 2.945,0.643 3.659,2.068 v -5.605 z m -8.083,8.088 c 0,2.443 1.625,3.693 3.604,3.693 2.07,0 3.604,-1.518 3.604,-3.71 0,-2.199 -1.57,-3.698 -3.604,-3.698 -1.98,0 -3.604,1.232 -3.604,3.715 z" /><path
       style="fill:#2e6480"
       inkscape:connector-curvature="0"
       id="path4545"
       d="m 176.141,428.319 c 0,0.929 -1.411,0.929 -1.411,0 0,-0.929 1.411,-0.928 1.411,0 z m -1.161,2.84 v 8.847 h 0.874 v -8.847 z" /><path
       style="fill:#2e6480"
       inkscape:connector-curvature="0"
       id="path4547"
       d="m 185.439,430.836 0.571,0.5 -0.856,1 c 0.625,0.674 1.089,1.569 1.089,2.998 0,1.535 -0.911,3.088 -2.373,3.746 1.552,0.553 2.409,1.641 2.409,3.156 0,2.377 -1.857,3.518 -4.195,3.518 -2.337,0 -4.176,-1.285 -4.176,-3.518 h 0.873 c 0,1.803 1.537,2.66 3.303,2.66 1.768,0 3.337,-0.783 3.337,-2.66 0,-1.889 -1.696,-2.642 -3.337,-2.642 -2.553,0 -4.14,-1.906 -4.14,-4.261 0,-2.75 1.856,-4.303 4.14,-4.303 0.893,0 1.819,0.32 2.498,0.807 z m -6.62,4.498 c 0,1.818 1.249,3.387 3.265,3.387 1.819,0 3.301,-1.568 3.301,-3.387 0,-2.234 -1.482,-3.428 -3.301,-3.428 -1.803,0 -3.265,1.123 -3.265,3.428 z" /><path
       style="fill:#2e6480"
       inkscape:connector-curvature="0"
       id="path4549"
       d="m 189.211,428.319 c 0,0.929 -1.41,0.929 -1.41,0 0,-0.929 1.41,-0.928 1.41,0 z m -1.161,2.84 v 8.847 h 0.875 v -8.847 z" /><path
       style="fill:#2e6480"
       inkscape:connector-curvature="0"
       id="path4551"
       d="m 193.44,428.532 v 2.662 h 2.997 v 0.729 h -2.997 v 5.373 c 0,1.195 0.251,2.034 1.625,2.034 0.429,0 0.91,-0.145 1.356,-0.357 l 0.303,0.714 c -0.554,0.271 -1.106,0.446 -1.66,0.446 -1.875,0 -2.481,-1.104 -2.481,-2.837 v -5.373 h -1.873 v -0.729 h 1.873 v -2.57 z" /><path
       style="fill:#2e6480"
       inkscape:connector-curvature="0"
       id="path4553"
       d="m 206.937,431.194 c 0,2.94 0,5.87 0,8.812 h -0.875 v -1.871 c -0.855,1.373 -2.176,2.018 -3.604,2.018 -2.462,0 -4.479,-1.857 -4.479,-4.551 0,-2.694 2.016,-4.516 4.479,-4.516 1.428,0 2.875,0.658 3.604,2.033 v -1.925 z m -8.084,4.408 c 0,2.209 1.606,3.693 3.604,3.693 4.907,0 4.907,-7.372 0,-7.372 -1.998,0 -3.604,1.463 -3.604,3.679 z" /><path
       style="fill:#2e6480"
       inkscape:connector-curvature="0"
       id="path4555"
       d="m 210.188,427.514 v 12.492 h -0.875 v -12.492 z" /><path
       style="fill:#2e6480"
       inkscape:connector-curvature="0"
       id="path4557"
       d="m 223.596,432.799 c -0.892,-0.786 -1.767,-0.93 -2.75,-0.93 -1.37,-0.02 -2.693,0.5 -2.655,1.625 0.035,1.179 1.568,1.41 2.674,1.607 1.571,0.266 3.732,0.533 3.641,2.587 -0.054,1.944 -2.07,2.464 -3.624,2.464 -1.55,0 -3.087,-0.588 -3.854,-1.768 l 0.643,-0.574 c 0.733,1.055 2.052,1.502 3.23,1.502 1.07,0 2.695,-0.283 2.75,-1.677 0.034,-1.271 -1.43,-1.519 -2.875,-1.751 -1.714,-0.283 -3.407,-0.606 -3.427,-2.374 -0.016,-1.729 1.712,-2.479 3.498,-2.46 1.287,0 2.409,0.359 3.285,1.176 z" /><path
       style="fill:#2e6480"
       inkscape:connector-curvature="0"
       id="path4559"
       d="m 225.958,435.602 c 0,-2.642 1.996,-4.551 4.478,-4.551 2.483,0 4.695,1.518 4.356,4.96 h -7.942 c 0.178,2.069 1.766,3.265 3.586,3.265 1.16,0 2.516,-0.463 3.18,-1.338 l 0.622,0.5 c -0.856,1.127 -2.392,1.695 -3.802,1.695 -2.482,0 -4.478,-1.731 -4.478,-4.531 z m 8.045,-0.36 c -0.016,-2.178 -1.444,-3.393 -3.567,-3.393 -1.82,0 -3.388,1.235 -3.586,3.393 z" /><path
       style="fill:#2e6480"
       inkscape:connector-curvature="0"
       id="path4561"
       d="m 237.917,431.194 v 1.569 c 0.68,-1.215 1.912,-1.713 3.143,-1.732 2.353,0 3.977,1.444 3.977,3.891 v 5.084 h -0.876 v -5.065 c 0,-1.999 -1.227,-3.071 -3.134,-3.054 -1.824,0.02 -3.092,1.393 -3.092,3.215 v 4.904 h -0.873 v -8.812 z" /><path
       style="fill:#2e6480"
       inkscape:connector-curvature="0"
       id="path4563"
       d="m 253.379,432.799 c -0.893,-0.786 -1.77,-0.93 -2.75,-0.93 -1.373,-0.02 -2.691,0.5 -2.654,1.625 0.03,1.179 1.565,1.41 2.671,1.607 1.578,0.266 3.73,0.533 3.643,2.587 -0.055,1.944 -2.065,2.464 -3.622,2.464 -1.553,0 -3.088,-0.588 -3.856,-1.768 l 0.644,-0.574 c 0.729,1.055 2.053,1.502 3.229,1.502 1.072,0 2.696,-0.283 2.75,-1.677 0.033,-1.271 -1.428,-1.519 -2.876,-1.751 -1.71,-0.283 -3.409,-0.606 -3.426,-2.374 -0.017,-1.729 1.715,-2.479 3.497,-2.46 1.286,0 2.408,0.359 3.285,1.176 z" /><path
       style="fill:#2e6480"
       inkscape:connector-curvature="0"
       id="path4565"
       d="m 255.829,435.618 c 0,-2.8 1.999,-4.587 4.482,-4.587 2.479,0 4.478,1.787 4.478,4.587 0,2.804 -1.999,4.515 -4.478,4.515 -2.483,0 -4.482,-1.711 -4.482,-4.515 z m 8.099,0 c 0,-2.284 -1.623,-3.769 -3.617,-3.769 -2,0 -3.626,1.484 -3.626,3.769 0,2.285 1.627,3.657 3.626,3.657 1.994,0 3.617,-1.373 3.617,-3.657 z" /><path
       style="fill:#2e6480"
       inkscape:connector-curvature="0"
       id="path4567"
       d="m 267.625,431.194 0.042,1.569 c 0.551,-1.197 1.803,-1.663 2.926,-1.663 0.659,-0.015 1.302,0.163 1.891,0.521 l -0.393,0.715 c -0.463,-0.285 -0.98,-0.413 -1.498,-0.413 -1.641,0.019 -2.909,1.338 -2.909,2.946 v 5.137 h -0.876 v -8.812 z" /><path
       style="fill:#2e6480"
       inkscape:connector-curvature="0"
       id="path4569"
       d="m 279.856,432.799 c -0.889,-0.786 -1.765,-0.93 -2.745,-0.93 -1.378,-0.02 -2.696,0.5 -2.659,1.625 0.033,1.179 1.565,1.41 2.676,1.607 1.573,0.266 3.73,0.533 3.639,2.587 -0.055,1.944 -2.065,2.464 -3.622,2.464 -1.553,0 -3.084,-0.588 -3.856,-1.768 l 0.644,-0.574 c 0.733,1.055 2.053,1.502 3.229,1.502 1.072,0 2.695,-0.283 2.75,-1.677 0.037,-1.271 -1.428,-1.519 -2.876,-1.751 -1.71,-0.283 -3.405,-0.606 -3.426,-2.374 -0.017,-1.729 1.716,-2.479 3.502,-2.46 1.285,0 2.407,0.359 3.283,1.176 z" /><path
       style="fill:#2e6480"
       inkscape:connector-curvature="0"
       id="path4571"
       d="m 288.791,428.319 c 0,0.929 -1.415,0.929 -1.415,0 0,-0.929 1.415,-0.928 1.415,0 z m -1.164,2.84 v 8.847 h 0.876 v -8.847 z" /><path
       style="fill:#2e6480"
       inkscape:connector-curvature="0"
       id="path4573"
       d="m 291.858,431.194 v 1.569 c 0.681,-1.215 1.911,-1.713 3.143,-1.732 2.354,0 3.977,1.444 3.977,3.891 v 5.084 h -0.872 v -5.065 c 0,-1.999 -1.23,-3.071 -3.143,-3.054 -1.819,0.02 -3.088,1.393 -3.088,3.215 v 4.904 h -0.872 v -8.812 z" /><path
       style="fill:#2e6480"
       inkscape:connector-curvature="0"
       id="path4575"
       d="m 312.23,432.799 c -0.894,-0.786 -1.769,-0.93 -2.749,-0.93 -1.374,-0.02 -2.696,0.5 -2.658,1.625 0.033,1.179 1.568,1.41 2.675,1.607 1.573,0.266 3.731,0.533 3.639,2.587 -0.055,1.944 -2.065,2.464 -3.621,2.464 -1.553,0 -3.085,-0.588 -3.853,-1.768 l 0.643,-0.574 c 0.73,1.055 2.054,1.502 3.225,1.502 1.073,0 2.7,-0.283 2.75,-1.677 0.038,-1.271 -1.425,-1.519 -2.874,-1.751 -1.711,-0.283 -3.405,-0.606 -3.426,-2.374 -0.018,-1.729 1.715,-2.479 3.501,-2.46 1.285,0 2.408,0.359 3.279,1.176 z" /><path
       style="fill:#2e6480"
       inkscape:connector-curvature="0"
       id="path4577"
       d="m 314.682,435.618 c 0,-2.8 1.993,-4.587 4.477,-4.587 2.482,0 4.478,1.787 4.478,4.587 0,2.804 -1.995,4.515 -4.478,4.515 -2.484,0 -4.477,-1.711 -4.477,-4.515 z m 8.099,0 c 0,-2.284 -1.624,-3.769 -3.623,-3.769 -1.999,0 -3.622,1.484 -3.622,3.769 0,2.285 1.623,3.657 3.622,3.657 1.999,0 3.623,-1.373 3.623,-3.657 z" /><path
       style="fill:#2e6480"
       inkscape:connector-curvature="0"
       id="path4579"
       d="m 332.889,438.777 c -0.894,0.893 -2.054,1.318 -3.215,1.318 -2.478,0 -4.531,-1.711 -4.531,-4.494 0,-2.783 1.978,-4.501 4.531,-4.501 1.161,0 2.321,0.448 3.215,1.323 l -0.572,0.553 c -0.715,-0.711 -1.694,-1.054 -2.643,-1.054 -1.999,0 -3.676,1.302 -3.676,3.679 0,2.369 1.677,3.674 3.676,3.674 0.948,0 1.907,-0.373 2.626,-1.086 z" /><path
       style="fill:#2e6480"
       inkscape:connector-curvature="0"
       id="path4581"
       d="m 335.834,428.319 c 0,0.929 -1.406,0.929 -1.406,0 0,-0.929 1.406,-0.928 1.406,0 z m -1.156,2.84 v 8.847 h 0.872 v -8.847 z" /><path
       style="fill:#2e6480"
       inkscape:connector-curvature="0"
       id="path4583"
       d="m 346.525,431.194 c 0,2.94 0,5.87 0,8.812 h -0.873 v -1.871 c -0.855,1.373 -2.178,2.018 -3.605,2.018 -2.461,0 -4.478,-1.857 -4.478,-4.551 0,-2.694 2.017,-4.516 4.478,-4.516 1.428,0 2.877,0.658 3.605,2.033 v -1.925 z m -8.084,4.408 c 0,2.209 1.612,3.693 3.605,3.693 4.908,0 4.908,-7.372 0,-7.372 -1.992,0 -3.605,1.463 -3.605,3.679 z" /><path
       style="fill:#2e6480"
       inkscape:connector-curvature="0"
       id="path4585"
       d="m 349.779,427.514 v 12.492 h -0.872 v -12.492 z" /><path
       style="fill:#2e6480"
       inkscape:connector-curvature="0"
       id="path4587"
       d="m 357.959,431.194 0.033,1.569 c 0.555,-1.197 1.803,-1.663 2.93,-1.663 0.659,-0.015 1.303,0.163 1.891,0.521 l -0.392,0.715 c -0.468,-0.285 -0.984,-0.413 -1.499,-0.413 -1.645,0.019 -2.913,1.338 -2.913,2.946 v 5.137 h -0.872 v -8.812 z" /><path
       style="fill:#2e6480"
       inkscape:connector-curvature="0"
       id="path4589"
       d="m 363.639,435.602 c 0,-2.642 1.995,-4.551 4.478,-4.551 2.478,0 4.696,1.518 4.355,4.96 h -7.944 c 0.18,2.069 1.771,3.265 3.589,3.265 1.156,0 2.517,-0.463 3.176,-1.338 l 0.621,0.5 c -0.854,1.127 -2.387,1.695 -3.797,1.695 -2.483,0 -4.478,-1.731 -4.478,-4.531 z m 8.047,-0.36 c -0.018,-2.178 -1.44,-3.393 -3.569,-3.393 -1.818,0 -3.392,1.235 -3.589,3.393 z" /><path
       style="fill:#2e6480"
       inkscape:connector-curvature="0"
       id="path4591"
       d="m 380.793,432.799 c -0.896,-0.786 -1.769,-0.93 -2.75,-0.93 -1.372,-0.02 -2.693,0.5 -2.658,1.625 0.035,1.179 1.57,1.41 2.679,1.607 1.57,0.266 3.728,0.533 3.641,2.587 -0.06,1.944 -2.07,2.464 -3.622,2.464 -1.553,0 -3.094,-0.588 -3.856,-1.768 l 0.639,-0.574 c 0.733,1.055 2.052,1.502 3.235,1.502 1.07,0 2.693,-0.283 2.744,-1.677 0.038,-1.271 -1.427,-1.519 -2.872,-1.751 -1.715,-0.283 -3.409,-0.606 -3.424,-2.374 -0.018,-1.729 1.709,-2.479 3.495,-2.46 1.286,0 2.409,0.359 3.285,1.176 z" /><path
       style="fill:#2e6480"
       inkscape:connector-curvature="0"
       id="path4593"
       d="m 383.151,435.602 c 0,-2.642 1.999,-4.551 4.481,-4.551 2.479,0 4.691,1.518 4.353,4.96 h -7.937 c 0.172,2.069 1.766,3.265 3.584,3.265 1.156,0 2.517,-0.463 3.176,-1.338 l 0.627,0.5 c -0.86,1.127 -2.395,1.695 -3.803,1.695 -2.482,0 -4.481,-1.731 -4.481,-4.531 z m 8.051,-0.36 c -0.018,-2.178 -1.444,-3.393 -3.569,-3.393 -1.818,0 -3.392,1.235 -3.584,3.393 z" /><path
       style="fill:#2e6480"
       inkscape:connector-curvature="0"
       id="path4595"
       d="m 402.734,431.194 c 0,2.94 0,5.87 0,8.812 h -0.875 v -1.871 c -0.854,1.373 -2.173,2.018 -3.604,2.018 -2.463,0 -4.479,-1.857 -4.479,-4.551 0,-2.694 2.016,-4.516 4.479,-4.516 1.432,0 2.874,0.658 3.604,2.033 v -1.925 z m -8.081,4.408 c 0,2.209 1.605,3.693 3.602,3.693 4.906,0 4.906,-7.372 0,-7.372 -1.996,0 -3.602,1.463 -3.602,3.679 z" /><path
       style="fill:#2e6480"
       inkscape:connector-curvature="0"
       id="path4597"
       d="m 405.938,431.194 0.032,1.569 c 0.556,-1.197 1.804,-1.663 2.931,-1.663 0.653,-0.015 1.301,0.163 1.89,0.521 l -0.394,0.715 c -0.467,-0.285 -0.984,-0.413 -1.496,-0.413 -1.645,0.019 -2.913,1.338 -2.913,2.946 v 5.137 h -0.878 v -8.812 z" /><path
       style="fill:#2e6480"
       inkscape:connector-curvature="0"
       id="path4599"
       d="m 419.341,438.777 c -0.894,0.893 -2.054,1.318 -3.21,1.318 -2.479,0 -4.536,-1.711 -4.536,-4.494 0,-2.783 1.982,-4.501 4.536,-4.501 1.156,0 2.316,0.448 3.21,1.323 l -0.572,0.553 c -0.713,-0.711 -1.694,-1.054 -2.638,-1.054 -1.999,0 -3.676,1.302 -3.676,3.679 0,2.369 1.677,3.674 3.676,3.674 0.943,0 1.907,-0.373 2.621,-1.086 z" /><path
       style="fill:#2e6480"
       inkscape:connector-curvature="0"
       id="path4601"
       d="m 421.97,427.514 v 5.324 c 0.714,-1.271 1.94,-1.752 3.176,-1.771 2.466,0 3.697,1.588 3.697,3.894 v 5.045 h -0.86 v -5.045 c 0,-1.826 -0.854,-3.055 -2.837,-3.055 -1.857,0 -3.143,1.428 -3.143,3.266 v 4.834 h -0.872 v -12.492 z" /></g></svg>