<?xml version="1.0" encoding="utf-8"?>
<!-- Generator: Adobe Illustrator 16.0.0, SVG Export Plug-In . SVG Version: 6.00 Build 0)  -->
<!DOCTYPE svg PUBLIC "-//W3C//DTD SVG 1.1//EN" "http://www.w3.org/Graphics/SVG/1.1/DTD/svg11.dtd">
<svg version="1.1" id="Layer_1" xmlns="http://www.w3.org/2000/svg" xmlns:xlink="http://www.w3.org/1999/xlink" x="0px" y="0px"
	 width="595.28px" height="841.89px" viewBox="0 0 595.28 841.89" enable-background="new 0 0 595.28 841.89" xml:space="preserve">
<g>
	<g>
		<path fill="#2E6480" d="M185.926,420.22v-13.352h-16.229v13.352h-6.226v-33.024h6.226v13.917h16.229v-13.917h6.181v33.024H185.926
			z"/>
		<path fill="#2E6480" d="M220.642,408.566c0,6.7-4.576,12.125-12.125,12.125s-12.078-5.425-12.078-12.125
			c0-6.651,4.623-12.123,12.03-12.123C215.875,396.443,220.642,401.915,220.642,408.566z M202.195,408.566
			c0,3.539,2.123,6.841,6.322,6.841c4.199,0,6.32-3.302,6.32-6.841c0-3.49-2.451-6.887-6.32-6.887
			C204.366,401.679,202.195,405.076,202.195,408.566z"/>
		<path fill="#2E6480" d="M240.075,420.172v-12.455c0-3.066-1.604-5.85-4.764-5.85c-3.114,0-4.954,2.783-4.954,5.85v12.455h-5.756
			v-23.306h5.331l0.425,2.833c1.227-2.36,3.914-3.21,6.131-3.21c2.785,0,5.57,1.132,6.889,4.342
			c2.077-3.303,4.767-4.247,7.786-4.247c6.604,0,9.86,4.056,9.86,11.04v12.548h-5.756v-12.548c0-3.066-1.275-5.661-4.389-5.661
			c-3.112,0-5.046,2.688-5.046,5.754v12.455H240.075z"/>
		<path fill="#2E6480" d="M271.769,410.595c0.378,2.877,2.877,4.955,6.937,4.955c2.122,0,4.906-0.803,6.226-2.171l3.68,3.633
			c-2.452,2.546-6.464,3.774-10,3.774c-8.021,0-12.785-4.954-12.785-12.407c0-7.078,4.812-12.173,12.359-12.173
			c7.783,0,12.646,4.812,11.748,14.389H271.769z M284.411,405.83c-0.375-3.019-2.734-4.529-6.039-4.529
			c-3.111,0-5.657,1.51-6.508,4.529H284.411z"/>
		<path fill="#82864F" d="M315.166,395.122c-1.132-1.887-4.246-3.681-7.831-3.681c-4.624,0-6.841,1.935-6.841,4.388
			c0,2.878,3.396,3.679,7.357,4.151c6.889,0.851,13.306,2.643,13.306,10.521c0,7.359-6.512,10.52-13.869,10.52
			c-6.746,0-11.938-2.074-14.39-8.113l5.188-2.689c1.462,3.631,5.284,5.236,9.296,5.236c3.914,0,7.593-1.368,7.593-4.954
			c0-3.113-3.254-4.387-7.641-4.859c-6.745-0.802-12.975-2.594-12.975-10.001c0-6.793,6.698-9.577,12.785-9.624
			c5.141,0,10.473,1.462,12.974,6.557L315.166,395.122z"/>
		<path fill="#82864F" d="M331.954,410.595c0.377,2.877,2.877,4.955,6.936,4.955c2.122,0,4.907-0.803,6.227-2.171l3.679,3.633
			c-2.452,2.546-6.465,3.774-10.001,3.774c-8.02,0-12.784-4.954-12.784-12.407c0-7.078,4.812-12.173,12.361-12.173
			c7.783,0,12.645,4.812,11.745,14.389H331.954z M344.596,405.83c-0.374-3.019-2.734-4.529-6.039-4.529
			c-3.11,0-5.658,1.51-6.508,4.529H344.596z"/>
		<path fill="#82864F" d="M371.674,420.172v-12.17c0-3.54-1.935-6.229-5.616-6.229c-3.536,0-5.943,2.974-5.943,6.512v11.888h-5.709
			v-23.306h5.145l0.378,3.162c2.355-2.312,4.715-3.492,7.64-3.492c5.474,0,9.86,4.104,9.86,11.418v12.218H371.674z"/>
		<path fill="#82864F" d="M397.567,403.095c-1.651-1.557-3.538-2.077-5.756-2.077c-2.737,0-4.246,0.85-4.246,2.312
			c0,1.51,1.369,2.36,4.341,2.548c4.387,0.283,9.953,1.273,9.953,7.454c0,4.105-3.351,7.643-10.001,7.643
			c-3.679,0-7.36-0.613-10.758-4.151l2.833-4.105c1.648,1.841,5.424,3.209,8.02,3.255c2.171,0.048,4.196-1.085,4.196-2.783
			c0-1.605-1.319-2.265-4.62-2.454c-4.391-0.33-9.626-1.935-9.626-7.218c0-5.377,5.57-7.265,9.813-7.265
			c3.634,0,6.368,0.708,9.058,3.067L397.567,403.095z"/>
		<path fill="#82864F" d="M410.441,410.595c0.378,2.877,2.877,4.955,6.937,4.955c2.121,0,4.906-0.803,6.226-2.171l3.678,3.633
			c-2.451,2.546-6.459,3.774-9.999,3.774c-8.021,0-12.785-4.954-12.785-12.407c0-7.078,4.812-12.173,12.361-12.173
			c7.782,0,12.641,4.812,11.747,14.389H410.441z M423.086,405.83c-0.379-3.019-2.735-4.529-6.039-4.529
			c-3.113,0-5.662,1.51-6.511,4.529H423.086z"/>
	</g>
	<g>
		<path fill="#82864F" d="M165.685,308.891c13.829-14.017,27.658-28.033,41.487-42.05c-0.581,0-1.162,0-1.743,0
			c7.987,7.745,15.973,15.49,23.959,23.236c4.84,4.692,9.679,9.387,14.52,14.08c1.002,0.973,2.005,1.946,3.009,2.918
			c0.461,0.447-0.222-1.277-0.222-0.458c0,0.579,0,1.158,0,1.736c0,23.323,0,36.046,0,59.369c0.41-0.411,0.821-0.821,1.232-1.232
			c-27.705,0-55.41,0-83.114,0c-1.589,0-1.589,2.464,0,2.464c27.704,0,55.409,0,83.114,0c0.67,0,1.231-0.561,1.231-1.231
			c0-23.436,0-36.272,0-59.708c0-2.37-0.712-2.887-2.427-4.551c-4.512-4.375-9.023-8.75-13.536-13.126
			c-8.654-8.393-17.308-16.785-25.963-25.177c-0.021-0.021-0.041-0.041-0.062-0.061c-0.48-0.464-1.266-0.483-1.743,0
			c-13.829,14.017-27.658,28.033-41.486,42.049C162.827,308.28,164.567,310.022,165.685,308.891L165.685,308.891z"/>
	</g>
	<g>
		<line fill="#2E6480" x1="258.455" y1="367.722" x2="258.455" y2="304.306"/>
		<g>
			<path fill="#2E6480" d="M260.919,367.722c0-24.672,0-38.744,0-63.416c0-3.177-4.928-3.177-4.928,0c0,24.672,0,38.744,0,63.416
				C255.991,370.899,260.919,370.899,260.919,367.722L260.919,367.722z"/>
		</g>
	</g>
	<g>
		<path fill="#2E6480" d="M204.379,255.417c21.128,20.242,42.255,40.483,63.384,60.724c2.293,2.198,5.782-1.283,3.484-3.484
			c-21.128-20.242-42.256-40.483-63.384-60.724C205.569,249.735,202.081,253.215,204.379,255.417L204.379,255.417z"/>
	</g>
	<g>
		<path fill="#2E6480" d="M260.83,369.259c3.315-8.542,6.63-17.083,9.946-25.624c-0.792,0-1.585,0-2.376,0
			c2.901,12.272,5.803,24.543,8.704,36.816c0.273,1.154,2.136,1.203,2.376,0c3.114-15.604,6.229-31.209,9.341-46.813
			c-0.792,0-1.584,0-2.376,0c1.807,8.459,3.614,16.918,5.42,25.377c0.114,0.532,0.665,0.905,1.188,0.905c4.12,0,8.24,0,12.359,0
			c1.589,0,1.589-2.464,0-2.464c-3.414,0-6.828,0-10.242,0c-0.578,0-1.156,0-1.734,0c-0.948,0,0.948,1.575,0.718,0.498
			c-0.306-1.431-0.611-2.862-0.916-4.295c-1.473-6.893-2.944-13.784-4.417-20.676c-0.25-1.171-2.139-1.188-2.376,0
			c-3.114,15.604-6.227,31.209-9.341,46.813c0.793,0,1.584,0,2.376,0c-2.901-12.272-5.803-24.544-8.704-36.816
			c-0.306-1.29-1.969-1.052-2.376,0c-3.315,8.541-6.631,17.083-9.947,25.624C257.878,370.087,260.262,370.723,260.83,369.259
			L260.83,369.259z"/>
	</g>
	<g>
		<circle fill="#2E6480" cx="308.493" cy="358.811" r="3.08"/>
		<path fill="#2E6480" d="M308.492,362.624c-2.103,0-3.813-1.711-3.813-3.813c0-2.103,1.711-3.813,3.813-3.813
			c2.104,0,3.814,1.71,3.814,3.813C312.307,360.913,310.597,362.624,308.492,362.624z M308.492,356.465
			c-1.293,0-2.346,1.053-2.346,2.346c0,1.294,1.053,2.346,2.346,2.346c1.295,0,2.347-1.052,2.347-2.346
			C310.839,357.518,309.787,356.465,308.492,356.465z"/>
	</g>
	<g>
		<path fill="#2E6480" d="M316.764,350.286c5.692,5.287,5.598,13.633-0.201,18.815c-0.592,0.53,0.282,1.399,0.872,0.871
			c6.278-5.612,6.375-14.823,0.198-20.556C317.052,348.876,316.178,349.745,316.764,350.286L316.764,350.286z"/>
	</g>
	<g>
		<path fill="#2E6480" d="M322.604,343.423c10.261,8.865,10.103,23.975-0.34,32.643c-0.612,0.508,0.265,1.375,0.872,0.871
			c10.915-9.062,11.077-25.108,0.339-34.384C322.877,342.035,322,342.903,322.604,343.423L322.604,343.423z"/>
	</g>
	<g>
		<path fill="#2E6480" d="M330.459,337.589c13.591,11.807,13.596,32.24,0,44.046c-0.602,0.522,0.273,1.389,0.871,0.872
			c14.075-12.223,14.069-33.564,0-45.789C330.732,336.201,329.857,337.068,330.459,337.589L330.459,337.589z"/>
	</g>
	<g>
		<path fill="#2E6480" d="M172.458,427.514v12.492h-0.857v-1.941c-0.732,1.339-2.178,2.088-3.676,2.088
			c-2.463,0-4.408-1.625-4.408-4.551c0-2.908,1.964-4.551,4.425-4.551c1.518,0,2.945,0.643,3.659,2.068v-5.605H172.458z
			 M164.375,435.602c0,2.443,1.625,3.693,3.604,3.693c2.07,0,3.604-1.518,3.604-3.71c0-2.199-1.57-3.698-3.604-3.698
			C165.999,431.887,164.375,433.119,164.375,435.602z"/>
		<path fill="#2E6480" d="M176.141,428.319c0,0.929-1.411,0.929-1.411,0S176.141,427.391,176.141,428.319z M174.98,431.159v8.847
			h0.874v-8.847H174.98z"/>
		<path fill="#2E6480" d="M185.439,430.836l0.571,0.5l-0.856,1c0.625,0.674,1.089,1.569,1.089,2.998
			c0,1.535-0.911,3.088-2.373,3.746c1.552,0.553,2.409,1.641,2.409,3.156c0,2.377-1.857,3.518-4.195,3.518
			c-2.337,0-4.176-1.285-4.176-3.518h0.873c0,1.803,1.537,2.66,3.303,2.66c1.768,0,3.337-0.783,3.337-2.66
			c0-1.889-1.696-2.642-3.337-2.642c-2.553,0-4.14-1.906-4.14-4.261c0-2.75,1.856-4.303,4.14-4.303c0.893,0,1.819,0.32,2.498,0.807
			L185.439,430.836z M178.819,435.334c0,1.818,1.249,3.387,3.265,3.387c1.819,0,3.301-1.568,3.301-3.387
			c0-2.234-1.482-3.428-3.301-3.428C180.281,431.906,178.819,433.029,178.819,435.334z"/>
		<path fill="#2E6480" d="M189.211,428.319c0,0.929-1.41,0.929-1.41,0S189.211,427.391,189.211,428.319z M188.05,431.159v8.847
			h0.875v-8.847H188.05z"/>
		<path fill="#2E6480" d="M193.44,428.532v2.662h2.997v0.729h-2.997v5.373c0,1.195,0.251,2.034,1.625,2.034
			c0.429,0,0.91-0.145,1.356-0.357l0.303,0.714c-0.554,0.271-1.106,0.446-1.66,0.446c-1.875,0-2.481-1.104-2.481-2.837v-5.373
			h-1.873v-0.729h1.873v-2.57L193.44,428.532z"/>
		<path fill="#2E6480" d="M206.937,431.194c0,2.94,0,5.87,0,8.812h-0.875v-1.871c-0.855,1.373-2.176,2.018-3.604,2.018
			c-2.462,0-4.479-1.857-4.479-4.551s2.016-4.516,4.479-4.516c1.428,0,2.875,0.658,3.604,2.033v-1.925H206.937z M198.853,435.602
			c0,2.209,1.606,3.693,3.604,3.693c4.907,0,4.907-7.372,0-7.372C200.459,431.923,198.853,433.386,198.853,435.602z"/>
		<path fill="#2E6480" d="M210.188,427.514v12.492h-0.875v-12.492H210.188z"/>
		<path fill="#2E6480" d="M223.596,432.799c-0.892-0.786-1.767-0.93-2.75-0.93c-1.37-0.02-2.693,0.5-2.655,1.625
			c0.035,1.179,1.568,1.41,2.674,1.607c1.571,0.266,3.732,0.533,3.641,2.587c-0.054,1.944-2.07,2.464-3.624,2.464
			c-1.55,0-3.087-0.588-3.854-1.768l0.643-0.574c0.733,1.055,2.052,1.502,3.23,1.502c1.07,0,2.695-0.283,2.75-1.677
			c0.034-1.271-1.43-1.519-2.875-1.751c-1.714-0.283-3.407-0.606-3.427-2.374c-0.016-1.729,1.712-2.479,3.498-2.46
			c1.287,0,2.409,0.359,3.285,1.176L223.596,432.799z"/>
		<path fill="#2E6480" d="M225.958,435.602c0-2.642,1.996-4.551,4.478-4.551c2.483,0,4.695,1.518,4.356,4.96h-7.942
			c0.178,2.069,1.766,3.265,3.586,3.265c1.16,0,2.516-0.463,3.18-1.338l0.622,0.5c-0.856,1.127-2.392,1.695-3.802,1.695
			C227.954,440.133,225.958,438.402,225.958,435.602z M234.003,435.242c-0.016-2.178-1.444-3.393-3.567-3.393
			c-1.82,0-3.388,1.235-3.586,3.393H234.003z"/>
		<path fill="#2E6480" d="M237.917,431.194v1.569c0.68-1.215,1.912-1.713,3.143-1.732c2.353,0,3.977,1.444,3.977,3.891v5.084h-0.876
			v-5.065c0-1.999-1.227-3.071-3.134-3.054c-1.824,0.02-3.092,1.393-3.092,3.215v4.904h-0.873v-8.812H237.917z"/>
		<path fill="#2E6480" d="M253.379,432.799c-0.893-0.786-1.77-0.93-2.75-0.93c-1.373-0.02-2.691,0.5-2.654,1.625
			c0.03,1.179,1.565,1.41,2.671,1.607c1.578,0.266,3.73,0.533,3.643,2.587c-0.055,1.944-2.065,2.464-3.622,2.464
			c-1.553,0-3.088-0.588-3.856-1.768l0.644-0.574c0.729,1.055,2.053,1.502,3.229,1.502c1.072,0,2.696-0.283,2.75-1.677
			c0.033-1.271-1.428-1.519-2.876-1.751c-1.71-0.283-3.409-0.606-3.426-2.374c-0.017-1.729,1.715-2.479,3.497-2.46
			c1.286,0,2.408,0.359,3.285,1.176L253.379,432.799z"/>
		<path fill="#2E6480" d="M255.829,435.618c0-2.8,1.999-4.587,4.482-4.587c2.479,0,4.478,1.787,4.478,4.587
			c0,2.804-1.999,4.515-4.478,4.515C257.828,440.133,255.829,438.422,255.829,435.618z M263.928,435.618
			c0-2.284-1.623-3.769-3.617-3.769c-2,0-3.626,1.484-3.626,3.769s1.627,3.657,3.626,3.657
			C262.305,439.275,263.928,437.902,263.928,435.618z"/>
		<path fill="#2E6480" d="M267.625,431.194l0.042,1.569c0.551-1.197,1.803-1.663,2.926-1.663c0.659-0.015,1.302,0.163,1.891,0.521
			l-0.393,0.715c-0.463-0.285-0.98-0.413-1.498-0.413c-1.641,0.019-2.909,1.338-2.909,2.946v5.137h-0.876v-8.812H267.625z"/>
		<path fill="#2E6480" d="M279.856,432.799c-0.889-0.786-1.765-0.93-2.745-0.93c-1.378-0.02-2.696,0.5-2.659,1.625
			c0.033,1.179,1.565,1.41,2.676,1.607c1.573,0.266,3.73,0.533,3.639,2.587c-0.055,1.944-2.065,2.464-3.622,2.464
			c-1.553,0-3.084-0.588-3.856-1.768l0.644-0.574c0.733,1.055,2.053,1.502,3.229,1.502c1.072,0,2.695-0.283,2.75-1.677
			c0.037-1.271-1.428-1.519-2.876-1.751c-1.71-0.283-3.405-0.606-3.426-2.374c-0.017-1.729,1.716-2.479,3.502-2.46
			c1.285,0,2.407,0.359,3.283,1.176L279.856,432.799z"/>
		<path fill="#2E6480" d="M288.791,428.319c0,0.929-1.415,0.929-1.415,0S288.791,427.391,288.791,428.319z M287.627,431.159v8.847
			h0.876v-8.847H287.627z"/>
		<path fill="#2E6480" d="M291.858,431.194v1.569c0.681-1.215,1.911-1.713,3.143-1.732c2.354,0,3.977,1.444,3.977,3.891v5.084
			h-0.872v-5.065c0-1.999-1.23-3.071-3.143-3.054c-1.819,0.02-3.088,1.393-3.088,3.215v4.904h-0.872v-8.812H291.858z"/>
		<path fill="#2E6480" d="M312.23,432.799c-0.894-0.786-1.769-0.93-2.749-0.93c-1.374-0.02-2.696,0.5-2.658,1.625
			c0.033,1.179,1.568,1.41,2.675,1.607c1.573,0.266,3.731,0.533,3.639,2.587c-0.055,1.944-2.065,2.464-3.621,2.464
			c-1.553,0-3.085-0.588-3.853-1.768l0.643-0.574c0.73,1.055,2.054,1.502,3.225,1.502c1.073,0,2.7-0.283,2.75-1.677
			c0.038-1.271-1.425-1.519-2.874-1.751c-1.711-0.283-3.405-0.606-3.426-2.374c-0.018-1.729,1.715-2.479,3.501-2.46
			c1.285,0,2.408,0.359,3.279,1.176L312.23,432.799z"/>
		<path fill="#2E6480" d="M314.682,435.618c0-2.8,1.993-4.587,4.477-4.587c2.482,0,4.478,1.787,4.478,4.587
			c0,2.804-1.995,4.515-4.478,4.515C316.675,440.133,314.682,438.422,314.682,435.618z M322.781,435.618
			c0-2.284-1.624-3.769-3.623-3.769s-3.622,1.484-3.622,3.769s1.623,3.657,3.622,3.657S322.781,437.902,322.781,435.618z"/>
		<path fill="#2E6480" d="M332.889,438.777c-0.894,0.893-2.054,1.318-3.215,1.318c-2.478,0-4.531-1.711-4.531-4.494
			s1.978-4.501,4.531-4.501c1.161,0,2.321,0.448,3.215,1.323l-0.572,0.553c-0.715-0.711-1.694-1.054-2.643-1.054
			c-1.999,0-3.676,1.302-3.676,3.679c0,2.369,1.677,3.674,3.676,3.674c0.948,0,1.907-0.373,2.626-1.086L332.889,438.777z"/>
		<path fill="#2E6480" d="M335.834,428.319c0,0.929-1.406,0.929-1.406,0S335.834,427.391,335.834,428.319z M334.678,431.159v8.847
			h0.872v-8.847H334.678z"/>
		<path fill="#2E6480" d="M346.525,431.194c0,2.94,0,5.87,0,8.812h-0.873v-1.871c-0.855,1.373-2.178,2.018-3.605,2.018
			c-2.461,0-4.478-1.857-4.478-4.551s2.017-4.516,4.478-4.516c1.428,0,2.877,0.658,3.605,2.033v-1.925H346.525z M338.441,435.602
			c0,2.209,1.612,3.693,3.605,3.693c4.908,0,4.908-7.372,0-7.372C340.054,431.923,338.441,433.386,338.441,435.602z"/>
		<path fill="#2E6480" d="M349.779,427.514v12.492h-0.872v-12.492H349.779z"/>
		<path fill="#2E6480" d="M357.959,431.194l0.033,1.569c0.555-1.197,1.803-1.663,2.93-1.663c0.659-0.015,1.303,0.163,1.891,0.521
			l-0.392,0.715c-0.468-0.285-0.984-0.413-1.499-0.413c-1.645,0.019-2.913,1.338-2.913,2.946v5.137h-0.872v-8.812H357.959z"/>
		<path fill="#2E6480" d="M363.639,435.602c0-2.642,1.995-4.551,4.478-4.551c2.478,0,4.696,1.518,4.355,4.96h-7.944
			c0.18,2.069,1.771,3.265,3.589,3.265c1.156,0,2.517-0.463,3.176-1.338l0.621,0.5c-0.854,1.127-2.387,1.695-3.797,1.695
			C365.634,440.133,363.639,438.402,363.639,435.602z M371.686,435.242c-0.018-2.178-1.44-3.393-3.569-3.393
			c-1.818,0-3.392,1.235-3.589,3.393H371.686z"/>
		<path fill="#2E6480" d="M380.793,432.799c-0.896-0.786-1.769-0.93-2.75-0.93c-1.372-0.02-2.693,0.5-2.658,1.625
			c0.035,1.179,1.57,1.41,2.679,1.607c1.57,0.266,3.728,0.533,3.641,2.587c-0.06,1.944-2.07,2.464-3.622,2.464
			c-1.553,0-3.094-0.588-3.856-1.768l0.639-0.574c0.733,1.055,2.052,1.502,3.235,1.502c1.07,0,2.693-0.283,2.744-1.677
			c0.038-1.271-1.427-1.519-2.872-1.751c-1.715-0.283-3.409-0.606-3.424-2.374c-0.018-1.729,1.709-2.479,3.495-2.46
			c1.286,0,2.409,0.359,3.285,1.176L380.793,432.799z"/>
		<path fill="#2E6480" d="M383.151,435.602c0-2.642,1.999-4.551,4.481-4.551c2.479,0,4.691,1.518,4.353,4.96h-7.937
			c0.172,2.069,1.766,3.265,3.584,3.265c1.156,0,2.517-0.463,3.176-1.338l0.627,0.5c-0.86,1.127-2.395,1.695-3.803,1.695
			C385.15,440.133,383.151,438.402,383.151,435.602z M391.202,435.242c-0.018-2.178-1.444-3.393-3.569-3.393
			c-1.818,0-3.392,1.235-3.584,3.393H391.202z"/>
		<path fill="#2E6480" d="M402.734,431.194c0,2.94,0,5.87,0,8.812h-0.875v-1.871c-0.854,1.373-2.173,2.018-3.604,2.018
			c-2.463,0-4.479-1.857-4.479-4.551s2.016-4.516,4.479-4.516c1.432,0,2.874,0.658,3.604,2.033v-1.925H402.734z M394.653,435.602
			c0,2.209,1.605,3.693,3.602,3.693c4.906,0,4.906-7.372,0-7.372C396.259,431.923,394.653,433.386,394.653,435.602z"/>
		<path fill="#2E6480" d="M405.938,431.194l0.032,1.569c0.556-1.197,1.804-1.663,2.931-1.663c0.653-0.015,1.301,0.163,1.89,0.521
			l-0.394,0.715c-0.467-0.285-0.984-0.413-1.496-0.413c-1.645,0.019-2.913,1.338-2.913,2.946v5.137h-0.878v-8.812H405.938z"/>
		<path fill="#2E6480" d="M419.341,438.777c-0.894,0.893-2.054,1.318-3.21,1.318c-2.479,0-4.536-1.711-4.536-4.494
			s1.982-4.501,4.536-4.501c1.156,0,2.316,0.448,3.21,1.323l-0.572,0.553c-0.713-0.711-1.694-1.054-2.638-1.054
			c-1.999,0-3.676,1.302-3.676,3.679c0,2.369,1.677,3.674,3.676,3.674c0.943,0,1.907-0.373,2.621-1.086L419.341,438.777z"/>
		<path fill="#2E6480" d="M421.97,427.514v5.324c0.714-1.271,1.94-1.752,3.176-1.771c2.466,0,3.697,1.588,3.697,3.894v5.045h-0.86
			v-5.045c0-1.826-0.854-3.055-2.837-3.055c-1.857,0-3.143,1.428-3.143,3.266v4.834h-0.872v-12.492H421.97z"/>
	</g>
</g>
</svg>
